0
SECTION
2
HEADER
9
$INSUNITS
70
4
9
$ACADVER
1
AC1014
9
$HANDSEED
5
FFFF
0
ENDSEC
0
SECTION
2
TABLES
0
TABLE
2
VPORT
5
8
100
AcDbSymbolTable
0
ENDTAB
0
TABLE
2
LTYPE
5
5
100
AcDbSymbolTable
0
LTYPE
5
14
100
AcDbSymbolTableRecord
100
AcDbLinetypeTableRecord
2
BYBLOCK
70
0
0
LTYPE
5
15
100
AcDbSymbolTableRecord
100
AcDbLinetypeTableRecord
2
BYLAYER
70
0
0
ENDTAB
0
TABLE
2
LAYER
5
2
100
AcDbSymbolTable
70
2
0
LAYER
5
50
100
AcDbSymbolTableRecord
100
AcDbLayerTableRecord
2
0
70
0
6
CONTINUOUS
0
ENDTAB
0
TABLE
2
STYLE
5
3
100
AcDbSymbolTable
70
1
0
STYLE
5
11
100
AcDbSymbolTableRecord
100
AcDbTextStyleTableRecord
2
STANDARD
70
0
0
ENDTAB
0
TABLE
2
VIEW
5
6
100
AcDbSymbolTable
70
0
0
ENDTAB
0
TABLE
2
UCS
5
7
100
AcDbSymbolTable
70
0
0
ENDTAB
0
TABLE
2
APPID
5
9
100
AcDbSymbolTable
70
2
0
APPID
5
12
100
AcDbSymbolTableRecord
100
AcDbRegAppTableRecord
2
ACAD
70
0
0
ENDTAB
0
TABLE
2
DIMSTYLE
5
A
100
AcDbSymbolTable
70
1
0
ENDTAB
0
TABLE
2
BLOCK_RECORD
5
1
100
AcDbSymbolTable
70
1
0
BLOCK_RECORD
5
1F
100
AcDbSymbolTableRecord
100
AcDbBlockTableRecord
2
*MODEL_SPACE
0
BLOCK_RECORD
5
1B
100
AcDbSymbolTableRecord
100
AcDbBlockTableRecord
2
*PAPER_SPACE
0
ENDTAB
0
ENDSEC
0
SECTION
2
BLOCKS
0
BLOCK
5
20
100
AcDbEntity
100
AcDbBlockBegin
2
*MODEL_SPACE
0
ENDBLK
5
21
100
AcDbEntity
100
AcDbBlockEnd
0
BLOCK
5
1C
100
AcDbEntity
100
AcDbBlockBegin
2
*PAPER_SPACE
0
ENDBLK
5
1D
100
AcDbEntity
100
AcDbBlockEnd
0
ENDSEC
0
SECTION
2
ENTITIES
0
LINE
5
100
100
AcDbEntity
8
0
100
AcDbLine
10
0
20
0
30
0
11
5
21
0
31
0
0
LINE
5
101
100
AcDbEntity
8
0
100
AcDbLine
10
0
20
-10.000000149011612
30
0
11
0
21
10.000000149011612
31
0
0
CIRCLE
5
102
100
AcDbEntity
8
0
100
AcDbCircle
10
5
20
0
30
0
40
2.0499999999999998
0
CIRCLE
5
103
100
AcDbEntity
8
0
100
AcDbCircle
10
-5.000000074505806
20
0
30
0
40
2.0500000000000012
0
CIRCLE
5
104
100
AcDbEntity
8
0
100
AcDbCircle
10
5
20
48.900000000000006
30
0
40
2.0500000000000016
0
CIRCLE
5
105
100
AcDbEntity
8
0
100
AcDbCircle
10
-5
20
48.900000000000006
30
0
40
2.0499999999999998
0
LINE
5
106
100
AcDbEntity
8
0
100
AcDbLine
10
5
20
48.900000000000006
30
0
11
5
21
46.850000000000009
31
0
0
LINE
5
107
100
AcDbEntity
8
0
100
AcDbLine
10
0
20
69.850000000000009
30
0
11
-6.0000000000000009
21
69.850000000000009
31
0
0
LINE
5
108
100
AcDbEntity
8
0
100
AcDbLine
10
0
20
69.850000000000009
30
0
11
6.0000000000000009
21
69.850000000000009
31
0
0
LINE
5
109
100
AcDbEntity
8
0
100
AcDbLine
10
4.4703474255669562e-08
20
-3.1500000000000083
30
0
11
0
21
-21.150000000000002
31
0
0
LINE
5
110
100
AcDbEntity
8
0
100
AcDbLine
10
4.4703483137453759e-08
20
51.850000000000009
30
0
11
0
21
69.850000000000009
31
0
0
LINE
5
111
100
AcDbEntity
8
0
100
AcDbLine
10
30.000000149011612
20
24.449999970197691
30
0
11
30.000000149011612
21
30.449999970197691
31
0
0
LINE
5
112
100
AcDbEntity
8
0
100
AcDbLine
10
13
20
30.449999970197688
30
0
11
14.999167720183021
21
30.449999970197688
31
0
0
LINE
5
113
100
AcDbEntity
8
0
100
AcDbLine
10
-13.000000149011612
20
24.44999997019768
30
0
11
-13.000000149011612
21
24.350000000000001
31
0
0
LINE
5
114
100
AcDbEntity
8
0
100
AcDbLine
10
5.0000802289043396
20
-2.0499999984300787
30
0
11
-8.0000001192092896
21
-2.0499999984300787
31
0
0
LINE
5
115
100
AcDbEntity
8
0
100
AcDbLine
10
10
20
24.449999970197691
30
0
11
10
21
44.949999970197695
31
0
0
LINE
5
116
100
AcDbEntity
8
0
100
AcDbLine
10
-10
20
24.449999970197691
30
0
11
-10
21
44.949999970197695
31
0
0
LINE
5
117
100
AcDbEntity
8
0
100
AcDbLine
10
10
20
24.449999970197691
30
0
11
10
21
3.949999970197684
31
0
0
LINE
5
118
100
AcDbEntity
8
0
100
AcDbLine
10
-10
20
24.449999970197691
30
0
11
-10
21
3.949999970197684
31
0
0
LINE
5
119
100
AcDbEntity
8
0
100
AcDbLine
10
0.66004064128686313
20
3.949999970197684
30
0
11
0.66004064128686313
21
-2.0499999984300787
31
0
0
LINE
5
120
100
AcDbEntity
8
0
100
AcDbLine
10
0.66004064128686313
20
-2.0499999984300787
30
0
11
0
21
-2.0499999984300787
31
0
0
LINE
5
121
100
AcDbEntity
8
0
100
AcDbLine
10
0
20
-2.0499999984300787
30
0
11
0
21
0
31
0
0
LINE
5
122
100
AcDbEntity
8
0
100
AcDbLine
10
-0.66004064128686313
20
3.949999970197684
30
0
11
-0.66004064128686313
21
-2.0499999984300787
31
0
0
LINE
5
123
100
AcDbEntity
8
0
100
AcDbLine
10
-0.66004064128686313
20
-2.0499999984300787
30
0
11
0
21
-2.0499999984300787
31
0
0
LINE
5
124
100
AcDbEntity
8
0
100
AcDbLine
10
0.66004064128686313
20
44.949999970197695
30
0
11
0.66004064128686313
21
50.949999938825457
31
0
0
LINE
5
125
100
AcDbEntity
8
0
100
AcDbLine
10
-0.66004064128686313
20
44.949999970197695
30
0
11
-0.66004064128686313
21
50.949999938825457
31
0
0
LINE
5
126
100
AcDbEntity
8
0
100
AcDbLine
10
-0.66004064128686313
20
50.949999938825457
30
0
11
0
21
50.949999938825457
31
0
0
LINE
5
127
100
AcDbEntity
8
0
100
AcDbLine
10
0.66004064128686313
20
50.949999938825457
30
0
11
0
21
50.949999938825457
31
0
0
LINE
5
128
100
AcDbEntity
8
0
100
AcDbLine
10
13.000000000000004
20
0.99999994039535467
30
0
11
13.000000193715096
21
0.99999994039535467
31
0
0
LINE
5
129
100
AcDbEntity
8
0
100
AcDbLine
10
5.0000802289043378
20
50.949999938825457
30
0
11
4.9994991850090598
21
50.949999938825457
31
0
0
LINE
5
130
100
AcDbEntity
8
0
100
AcDbLine
10
0.66004064128686313
20
50.949999938825457
30
0
11
-0.66004064128686313
21
50.949999938825457
31
0
0
LINE
5
131
100
AcDbEntity
8
0
100
AcDbLine
10
-4.9994991850183759
20
50.949999938825457
30
0
11
-5.0005008149816241
21
50.949999938825457
31
0
0
LINE
5
132
100
AcDbEntity
8
0
100
AcDbLine
10
-8.0000001937150955
20
54.900000029802349
30
0
11
8.0000001937150955
21
54.900000029802349
31
0
0
LINE
5
133
100
AcDbEntity
8
0
100
AcDbLine
10
13
20
-6.0000000894069672
30
0
11
13
21
-6.0000000894069672
31
0
0
LINE
5
134
100
AcDbEntity
8
0
100
AcDbLine
10
8.0000001937150955
20
54.900000029802349
30
0
11
13.000000048428774
21
54.900000029802349
31
0
0
LINE
5
135
100
AcDbEntity
8
0
100
AcDbLine
10
-13.000000193715096
20
54.900000029802349
30
0
11
-8.0000001937150955
21
54.900000029802349
31
0
0
LINE
5
136
100
AcDbEntity
8
0
100
AcDbLine
10
-30
20
-7.9999999999999982
30
0
11
-30
21
-20
31
0
0
LINE
5
137
100
AcDbEntity
8
0
100
AcDbLine
10
30
20
-7.9999999999999982
30
0
11
30
21
-20
31
0
0
LINE
5
138
100
AcDbEntity
8
0
100
AcDbLine
10
-30
20
-20
30
0
11
30
21
-20
31
0
0
LINE
5
139
100
AcDbEntity
8
0
100
AcDbLine
10
30
20
-20
30
0
11
30
21
-7.9999999999999982
31
0
0
LINE
5
140
100
AcDbEntity
8
0
100
AcDbLine
10
-30
20
-7.9999999999999982
30
0
11
-30
21
-20
31
0
0
CIRCLE
5
141
100
AcDbEntity
8
0
100
AcDbCircle
10
20.000000375012561
20
-14
30
0
40
2.0000000000000018
0
CIRCLE
5
142
100
AcDbEntity
8
0
100
AcDbCircle
10
-20.000000149011615
20
-14
30
0
40
1.9999999999999996
0
LINE
5
143
100
AcDbEntity
8
0
100
AcDbLine
10
-10
20
44.949999970197695
30
0
11
-0.66004064128686313
21
44.949999970197695
31
0
0
LINE
5
144
100
AcDbEntity
8
0
100
AcDbLine
10
0.66004064128686313
20
44.949999970197695
30
0
11
10
21
44.949999970197695
31
0
0
LINE
5
145
100
AcDbEntity
8
0
100
AcDbLine
10
-10
20
3.949999970197684
30
0
11
-0.66004064128686313
21
3.949999970197684
31
0
0
LINE
5
146
100
AcDbEntity
8
0
100
AcDbLine
10
0.66004064128686313
20
3.949999970197684
30
0
11
10
21
3.949999970197684
31
0
0
LINE
5
147
100
AcDbEntity
8
0
100
AcDbLine
10
-16.51632015992714
20
24.449999970197702
30
0
11
10
21
24.449999970197691
31
0
0
ARC
5
148
100
AcDbEntity
8
0
100
AcDbCircle
10
131.34781395058849
20
53.138598274738555
30
0
40
118.36092088000538
100
AcDbArc
50
179.14731474506277
51
211.10069977566135
0
ARC
5
149
100
AcDbEntity
8
0
100
AcDbCircle
10
-131.34781358159307
20
53.13859892715007
30
0
40
118.36092088000566
100
AcDbArc
50
-31.100700060252546
51
0.85268497034605084
0
LINE
5
150
100
AcDbEntity
8
0
100
AcDbLine
10
22.000000375012565
20
-14
30
0
11
18.000000375012561
21
-14
31
0
0
LINE
5
151
100
AcDbEntity
8
0
100
AcDbLine
10
-18.000000149011615
20
-14
30
0
11
-30
21
-14
31
0
0
ENDSEC
0
SECTION
2
OBJECTS
0
DICTIONARY
5
C
100
AcDbDictionary
3
ACAD_GROUP
350
D
3
ACAD_MLINESTYLE
350
17
0
DICTIONARY
5
D
100
AcDbDictionary
0
DICTIONARY
5
1A
330
C
100
AcDbDictionary
0
DICTIONARY
5
17
100
AcDbDictionary
0
ENDSEC
0
EOF
